<svg id="visual" viewBox="0 0 900 600" width="900" height="600" xmlns="http://www.w3.org/2000/svg" xmlns:xlink="http://www.w3.org/1999/xlink" version="1.1"><path d="M0 187L30 186C60 185 120 183 180 200C240 217 300 253 360 268C420 283 480 277 540 262C600 247 660 223 720 212C780 201 840 203 870 204L900 205L900 0L870 0C840 0 780 0 720 0C660 0 600 0 540 0C480 0 420 0 360 0C300 0 240 0 180 0C120 0 60 0 30 0L0 0Z" fill="#70d8e2"></path><path d="M0 445L30 438C60 431 120 417 180 417C240 417 300 431 360 427C420 423 480 401 540 399C600 397 660 415 720 426C780 437 840 441 870 443L900 445L900 203L870 202C840 201 780 199 720 210C660 221 600 245 540 260C480 275 420 281 360 266C300 251 240 215 180 198C120 181 60 183 30 184L0 185Z" fill="#41cdda"></path><path d="M0 523L30 524C60 525 120 527 180 528C240 529 300 529 360 521C420 513 480 497 540 496C600 495 660 509 720 517C780 525 840 527 870 528L900 529L900 443L870 441C840 439 780 435 720 424C660 413 600 395 540 397C480 399 420 421 360 425C300 429 240 415 180 415C120 415 60 429 30 436L0 443Z" fill="#10b6c2"></path><path d="M0 601L30 601C60 601 120 601 180 601C240 601 300 601 360 601C420 601 480 601 540 601C600 601 660 601 720 601C780 601 840 601 870 601L900 601L900 527L870 526C840 525 780 523 720 515C660 507 600 493 540 494C480 495 420 511 360 519C300 527 240 527 180 526C120 525 60 523 30 522L0 521Z" fill="#0e929c"></path></svg>