<svg xmlns="http://www.w3.org/2000/svg" xml:space="preserve" fill="#fff" stroke="#fff" viewBox="0 0 276.2 276.2"><path d="M33 2a32 32 0 1 0 0 65 32 32 0 0 0 0-65zM138 2a32 32 0 1 0 0 65 32 32 0 0 0 0-65zM244 67a32 32 0 1 0 0-65 32 32 0 0 0 0 65zM32 171a32 32 0 1 0 0-65 32 32 0 0 0 0 65zM137 171a32 32 0 1 0 0-65 32 32 0 0 0 0 65zM243 171a32 32 0 1 0 0-65 32 32 0 0 0 0 65zM33 209a32 32 0 1 0 0 65 32 32 0 0 0 0-65zM138 209a32 32 0 1 0 0 65 32 32 0 0 0 0-65zM244 209a32 32 0 1 0 0 65 32 32 0 0 0 0-65z"/></svg>