<svg fill="#eee" viewBox="0 0 36 36" version="1.1" preserveAspectRatio="xMidYMid meet" xmlns="http://www.w3.org/2000/svg" xmlns:xlink="http://www.w3.org/1999/xlink" ><g id="SVGRepo_bgCarrier" stroke-width="0"></g><g id="SVGRepo_tracerCarrier" stroke-linecap="round" stroke-linejoin="round"></g><g id="SVGRepo_iconCarrier"> <title>window-restore-line</title> <path d="M28,8H14a2,2,0,0,0-2,2v2h2V10H28V20H26v2h2a2,2,0,0,0,2-2V10A2,2,0,0,0,28,8Z" class="clr-i-outline clr-i-outline-path-1"></path><path d="M22,14H8a2,2,0,0,0-2,2V26a2,2,0,0,0,2,2H22a2,2,0,0,0,2-2V16A2,2,0,0,0,22,14ZM8,26V16H22V26Z" class="clr-i-outline clr-i-outline-path-2"></path> <rect x="0" y="0" width="36" height="36" fill-opacity="0"></rect> </g></svg>